#!OML:ASF F:\VICON\USERDATA\INSTALL\rory3\rory3.ASF
:FULLY-SPECIFIED
:DEGREES
242
root 2.53013 17.0222 -2.91738 8.47038 -42.5773 0.948742
lowerback -7.3636 1.02205 0.584518
upperback -5.75468 1.24901 0.463315
thorax -1.81289 0.581101 0.220644
lowerneck -7.64207 11.8785 6.94013
upperneck 29.3141 16.5955 -3.4489
head 11.7235 7.80366 -0.305206
rclavicle -2.07978e-014 -1.35174e-014
rhumerus 26.6024 -30.2583 -18.0007
rradius 128.451
rwrist -59.6473
rhand -6.31765 -45.1069
rfingers 7.12502
rthumb 19.527 -74.1463
lclavicle -2.07978e-014 -1.35174e-014
lhumerus 25.464 -3.37481 -7.9569
lradius 35.2957
lwrist 35.7241
lhand -17.6957 -19.6828
lfingers 7.12502
lthumb 8.56396 10.1235
rfemur -14.9519 -5.36477 13.7624
rtibia 37.2429
rfoot -25.1926 -26.6618
rtoes -4.53478
lfemur -21.3305 -8.85863 -2.88726
ltibia 13.2491
lfoot 4.54724 25.0773
ltoes -0.250944
243
root 2.5276 17.0157 -2.93937 8.20737 -42.5245 1.15929
lowerback -7.28818 0.973229 0.394671
upperback -5.66935 1.19624 0.405233
thorax -1.76834 0.560469 0.263686
lowerneck -8.22998 12.0147 6.61426
upperneck 30.141 16.7034 -2.84238
head 12.08 7.84744 0.0368592
rclavicle -2.67862e-014 3.97569e-015
rhumerus 26.9134 -30.0787 -18.4577
rradius 128.392
rwrist -59.5003
rhand -6.37259 -45.1134
rfingers 7.12502
rthumb 19.4742 -74.1582
lclavicle -2.67862e-014 3.97569e-015
lhumerus 25.3761 -3.53749 -7.75722
lradius 35.3124
lwrist 35.6841
lhand -17.7966 -19.7941
lfingers 7.12502
lthumb 8.46664 10.0162
rfemur -14.9913 -5.51569 13.6474
rtibia 37.4577
rfoot -24.9169 -26.8574
rtoes -5.09081
lfemur -21.2112 -9.07404 -2.96766
ltibia 13.1193
lfoot 4.59089 25.2673
ltoes -0.224464
244
root 2.52408 17.0123 -2.95983 8.10226 -42.4332 1.27414
lowerback -7.22928 0.913622 0.242519
upperback -5.67164 1.12575 0.414171
thorax -1.80623 0.529996 0.353191
lowerneck -8.50878 12.0818 6.49683
upperneck 30.703 16.8021 -2.67777
head 12.3399 7.87162 0.164973
rclavicle -2.74074e-014 1.59028e-015
rhumerus 27.2284 -29.9576 -18.866
rradius 128.388
rwrist -59.5852
rhand -6.78823 -45.2981
rfingers 7.12502
rthumb 19.0745 -74.3828
lclavicle -2.74074e-014 1.59028e-015
lhumerus 25.2827 -3.71224 -7.39222
lradius 35.2629
lwrist 35.3703
lhand -17.9103 -19.5864
lfingers 7.12502
lthumb 8.35687 10.2283
rfemur -15.0817 -5.74923 13.5929
rtibia 37.6655
rfoot -25.1036 -26.62
rtoes -4.75639
lfemur -21.1843 -9.3271 -2.95256
ltibia 12.979
lfoot 4.76498 25.415
ltoes -0.273409
245
root 2.52053 17.0092 -2.97875 8.03305 -42.3372 1.30768
lowerback -7.0707 0.821988 0.0806438
upperback -5.74833 1.01337 0.53307
thorax -1.97821 0.480497 0.557202
lowerneck -8.36981 12.1085 6.3783
upperneck 30.9256 16.9112 -2.75609
head 12.4052 7.89287 0.166883
rclavicle 1.15792e-014 3.18055e-015
rhumerus 27.6463 -29.7277 -19.2168
rradius 128.397
rwrist -59.646
rhand -6.79968 -45.3395
rfingers 7.12502
rthumb 19.0635 -74.4253
lclavicle 1.15792e-014 3.18055e-015
lhumerus 24.9123 -4.40266 -7.29047
lradius 35.4043
lwrist 35.4384
lhand -18.223 -19.743
lfingers 7.12502
lthumb 8.05514 10.0835
rfemur -15.1278 -5.92953 13.6136
rtibia 37.8204
rfoot -25.4919 -26.3313
rtoes -4.04608
lfemur -21.1724 -9.4589 -2.91394
ltibia 12.9106
lfoot 4.98505 25.3861
ltoes -0.720263
246
root 2.51742 17.005 -2.99237 7.88968 -42.2749 1.29107
lowerback -6.85356 0.815188 0.0245396
upperback -5.76706 1.00954 0.600063
thorax -2.12005 0.482063 0.654093
lowerneck -8.31121 12.1172 6.26053
upperneck 31.0869 16.9473 -2.7088
head 12.4438 7.89814 0.206431
rclavicle -1.33683e-014 -1.19271e-015
rhumerus 27.8868 -29.5113 -19.4335
rradius 128.369
rwrist -59.4149
rhand -6.34421 -45.1866
rfingers 7.12502
rthumb 19.5014 -74.2286
lclavicle -1.33683e-014 -1.19271e-015
lhumerus 24.7337 -5.00509 -7.13283
lradius 35.5083
lwrist 35.4653
lhand -18.3863 -20.3174
lfingers 7.12502
lthumb 7.89752 9.51507
rfemur -15.0378 -6.00889 13.6698
rtibia 37.9177
rfoot -25.4197 -26.4337
rtoes -4.27924
lfemur -21.0741 -9.74796 -2.82187
ltibia 12.9608
lfoot 4.66635 25.6919
ltoes -0.159876
247
root 2.51515 16.9988 -3.00664 8.05468 -42.1389 0.84312
lowerback -6.77321 0.812577 0.435137
upperback -5.74474 0.988886 0.664825
thorax -2.13507 0.460117 0.488779
lowerneck -8.12112 12.0772 6.26761
upperneck 31.0725 16.9135 -2.77779
head 12.4057 7.88062 0.160701
rclavicle -1.31943e-013 -2.8625e-014
rhumerus 28.0562 -29.372 -19.7233
rradius 128.43
rwrist -59.3526
rhand -6.16991 -45.2682
rfingers 7.12502
rthumb 19.669 -74.2931
lclavicle -1.31943e-013 -2.8625e-014
lhumerus 24.6886 -5.24847 -6.82999
lradius 35.4897
lwrist 35.389
lhand -18.2791 -20.5026
lfingers 7.12502
lthumb 8.00094 9.32597
rfemur -14.9357 -5.97727 14.0991
rtibia 38.0045
rfoot -25.3433 -26.6253
rtoes -4.48538
lfemur -21.0609 -9.85926 -2.38842
ltibia 13.0752
lfoot 4.43042 25.7677
ltoes 0.441295
248
root 2.51181 16.9931 -3.02277 8.24877 -41.9644 0.531791
lowerback -6.80846 0.903079 0.678901
upperback -5.48779 1.09967 0.489238
thorax -1.84089 0.508044 0.179433
lowerneck -9.16155 11.9241 6.62501
upperneck 31.4148 16.5963 -2.76029
head 12.7781 7.73908 0.155926
rclavicle 9.93923e-016 -2.38542e-015
rhumerus 27.7612 -29.8922 -19.8817
rradius 128.623
rwrist -59.5464
rhand -6.36878 -45.4786
rfingers 7.12502
rthumb 19.4778 -74.523
lclavicle 9.93923e-016 -2.38542e-015
lhumerus 25.206 -5.13751 -6.92757
lradius 35.4409
lwrist 35.686
lhand -18.4281 -20.3723
lfingers 7.12502
lthumb 7.8572 9.46169
rfemur -14.9688 -6.04044 14.4263
rtibia 38.1427
rfoot -25.5917 -26.6061
rtoes -4.20266
lfemur -21.2321 -9.59438 -2.12952
ltibia 13.2458
lfoot 4.68588 25.2756
ltoes -0.346286
